<?xml version="1.0" standalone="no"?>
<!DOCTYPE svg PUBLIC "-//W3C//DTD SVG 20010904//EN"
 "http://www.w3.org/TR/2001/REC-SVG-20010904/DTD/svg10.dtd">
<svg version="1.0" xmlns="http://www.w3.org/2000/svg"
 width="447.000000pt" height="447.000000pt" viewBox="0 0 447.000000 447.000000"
 preserveAspectRatio="xMidYMid meet">
<metadata>
Created by potrace 1.11, written by Peter Selinger 2001-2013
</metadata>
<g transform="translate(0.000000,447.000000) scale(0.100000,-0.100000)"
fill="#000000" stroke="none">
<path d="M2005 3480 c-119 -46 -257 -214 -291 -352 -6 -26 -4 -28 27 -28 27 1
38 7 54 32 33 52 96 94 163 107 48 9 88 9 206 -4 235 -24 380 -17 561 30 49
13 91 22 93 21 1 -2 -14 -28 -33 -57 -55 -82 -177 -335 -249 -514 l-63 -160
-186 -3 c-182 -2 -185 -3 -191 -25 -13 -48 -16 -47 169 -47 96 0 175 -4 175
-8 0 -4 -27 -86 -60 -181 -33 -95 -103 -315 -156 -489 -152 -505 -221 -674
-321 -796 -138 -168 -387 -206 -497 -76 -29 36 -29 34 -30 150 -1 94 -16 129
-67 156 -83 42 -162 -22 -163 -132 -1 -96 80 -211 187 -265 108 -56 321 -69
470 -30 214 56 384 208 507 450 92 183 156 392 276 894 l78 327 122 0 122 0
11 31 c6 18 11 34 11 35 0 2 -56 4 -125 4 -125 0 -125 0 -120 23 76 325 142
563 172 621 9 16 55 71 103 121 48 51 90 104 94 119 9 36 -9 66 -40 66 -34 0
-55 -12 -137 -81 -111 -93 -214 -120 -324 -83 -26 9 -88 39 -137 66 -133 75
-203 98 -289 97 -46 0 -90 -7 -122 -19z"/>
</g>
</svg>
